# Blender 5.1.2
# www.blender.org
mtllib terrain.mtl
o Cube
v 250.000000 0.500000 -1.000000
v 250.000000 0.500000 1.000000
v -250.000000 0.500000 -1.000000
v -250.000000 0.500000 1.000000
v 210.784317 0.500000 1.000000
v 181.372559 0.500000 1.000000
v 171.568634 0.500000 1.000000
v 151.960785 0.500000 1.000000
v 93.137268 0.500000 1.000000
v 83.333344 0.500000 1.000000
v 73.529419 0.500000 1.000000
v 63.725502 0.500000 1.000000
v 44.117661 0.500000 1.000000
v 24.509817 0.500000 1.000000
v -73.529404 0.500000 1.000000
v -83.333321 0.500000 1.000000
v -93.137245 0.500000 1.000000
v -112.745087 0.500000 1.000000
v -122.549004 0.500000 1.000000
v -132.352936 0.500000 1.000000
v -151.960770 0.500000 1.000000
v -181.372543 0.500000 1.000000
v -191.176453 0.500000 1.000000
v -210.784302 0.500000 1.000000
v -230.392136 0.500000 1.000000
v -230.392151 0.500000 -1.000000
v -210.784317 0.500000 -1.000000
v -191.176468 0.500000 -1.000000
v -181.372559 0.500000 -1.000000
v -151.960785 0.500000 -1.000000
v -132.352951 0.500000 -1.000000
v -122.549026 0.500000 -1.000000
v -112.745110 0.500000 -1.000000
v -93.137268 0.500000 -1.000000
v -83.333344 0.500000 -1.000000
v -73.529419 0.500000 -1.000000
v 24.509794 0.500000 -1.000000
v 44.117638 0.500000 -1.000000
v 63.725479 0.500000 -1.000000
v 73.529404 0.500000 -1.000000
v 83.333321 0.500000 -1.000000
v 93.137245 0.500000 -1.000000
v 151.960770 0.500000 -1.000000
v 171.568619 0.500000 -1.000000
v 181.372543 0.500000 -1.000000
v 210.784302 0.500000 -1.000000
v -181.372543 1.581267 1.000000
v -191.176453 1.581267 1.000000
v -210.784302 1.581267 1.000000
v -230.392136 1.581267 1.000000
v -230.392151 1.581267 -1.000000
v -210.784317 1.581267 -1.000000
v -191.176468 1.581267 -1.000000
v -181.372559 1.581267 -1.000000
v -191.176453 2.622241 1.000000
v -210.784302 2.622241 1.000000
v -210.784317 2.622241 -1.000000
v -191.176468 2.622241 -1.000000
v -132.352936 3.143223 1.000000
v -151.960770 3.143223 1.000000
v -151.960785 3.143223 -1.000000
v -132.352951 3.143223 -1.000000
v -122.549004 1.730253 1.000000
v -132.352936 1.730253 1.000000
v -132.352951 1.730253 -1.000000
v -122.549026 1.730253 -1.000000
v -93.137245 1.775236 1.000000
v -112.745087 1.775236 1.000000
v -112.745110 1.775236 -1.000000
v -93.137268 1.775236 -1.000000
v -73.529404 5.030815 1.000000
v -83.333321 5.030815 1.000000
v -83.333344 5.030815 -1.000000
v -73.529419 5.030815 -1.000000
v -53.874031 10.102356 0.929542
v -53.874031 10.613337 0.929542
v -53.874031 10.102356 -0.990512
v -53.874031 10.613337 -0.990512
v -44.214458 10.102356 0.929542
v -44.214458 10.613337 0.929542
v -44.214458 10.102356 -0.990512
v -44.214458 10.613337 -0.990512
v -23.628115 11.434368 1.065632
v -23.628115 12.128662 1.065632
v -23.628115 11.434368 -1.032817
v -23.628115 12.128662 -1.032817
v -13.708533 11.434368 1.065632
v -13.708533 12.128662 1.065632
v -13.708533 11.434368 -1.032817
v -13.708533 12.128662 -1.032817
v 4.939329 16.252926 0.809238
v 4.939329 16.913204 0.809238
v 4.939329 16.252926 -1.041733
v 4.939329 16.913204 -1.041733
v 14.696258 16.252926 0.809238
v 14.696258 16.913204 0.809238
v 14.696258 16.252926 -1.041733
v 14.696258 16.913204 -1.041733
v 44.117661 8.225587 1.000000
v 24.509817 8.225587 1.000000
v 24.509794 8.225587 -1.000000
v 44.117638 8.225587 -1.000000
v 73.529419 10.968900 1.000000
v 63.725502 10.968900 1.000000
v 63.725479 10.968900 -1.000000
v 73.529404 10.968900 -1.000000
v 93.137268 7.980878 1.000000
v 83.333344 7.980878 1.000000
v 83.333321 7.980878 -1.000000
v 93.137245 7.980878 -1.000000
v 171.568634 2.166653 1.000000
v 151.960785 2.166653 1.000000
v 151.960770 2.166653 -1.000000
v 171.568619 2.166653 -1.000000
v 210.784317 6.060487 1.000000
v 181.372559 6.060487 1.000000
v 181.372543 6.060487 -1.000000
v 210.784302 6.060487 -1.000000
v -250.000000 -19.352421 -1.000000
v -250.000000 -19.352421 1.000000
v 250.000000 -19.352421 1.000000
v 250.000000 -19.352421 -1.000000
v 210.784317 -19.352421 -1.000000
v 181.372559 -19.352421 -1.000000
v 171.568634 -19.352421 -1.000000
v 151.960785 -19.352421 -1.000000
v 93.137268 -19.352421 -1.000000
v 83.333344 -19.352421 -1.000000
v 73.529419 -19.352421 -1.000000
v 63.725502 -19.352421 -1.000000
v 44.117661 -19.352421 -1.000000
v 24.509817 -19.352421 -1.000000
v -73.529404 -19.352421 -1.000000
v -83.333321 -19.352421 -1.000000
v -93.137245 -19.352421 -1.000000
v -112.745087 -19.352421 -1.000000
v -122.549004 -19.352421 -1.000000
v -132.352936 -19.352421 -1.000000
v -151.960770 -19.352421 -1.000000
v -181.372543 -19.352421 -1.000000
v -191.176453 -19.352421 -1.000000
v -210.784302 -19.352421 -1.000000
v -230.392136 -19.352421 -1.000000
v -230.392151 -19.352421 1.000000
v -210.784317 -19.352421 1.000000
v -191.176468 -19.352421 1.000000
v -181.372559 -19.352421 1.000000
v -151.960785 -19.352421 1.000000
v -132.352951 -19.352421 1.000000
v -122.549026 -19.352421 1.000000
v -112.745110 -19.352421 1.000000
v -93.137268 -19.352421 1.000000
v -83.333344 -19.352421 1.000000
v -73.529419 -19.352421 1.000000
v 24.509794 -19.352421 1.000000
v 44.117638 -19.352421 1.000000
v 63.725479 -19.352421 1.000000
v 73.529404 -19.352421 1.000000
v 83.333321 -19.352421 1.000000
v 93.137245 -19.352421 1.000000
v 151.960770 -19.352421 1.000000
v 171.568619 -19.352421 1.000000
v 181.372543 -19.352421 1.000000
v 210.784302 -19.352421 1.000000
vn -0.0000 1.0000 -0.0000
vn 1.0000 -0.0000 -0.0000
vn -0.0000 -0.0000 -1.0000
vn -0.0000 -0.0000 1.0000
vn -1.0000 -0.0000 -0.0000
vn -0.0000 -1.0000 -0.0000
vt 0.479113 0.528271
vt 0.479113 0.614647
vt 0.468410 0.614647
vt 0.468410 0.528271
vt 0.422671 0.528271
vt 0.422671 0.615725
vt 0.411968 0.615725
vt 0.411968 0.528271
vt 0.070808 0.003339
vt 0.177044 0.003339
vt 0.177044 0.176090
vt 0.070808 0.176091
vt 0.769774 0.441895
vt 0.876010 0.441895
vt 0.876010 0.528271
vt 0.769774 0.528271
vt 0.769774 0.398708
vt 0.876010 0.398708
vt 0.646857 0.176091
vt 0.753093 0.176090
vt 0.753093 0.262466
vt 0.646857 0.262466
vt 0.646857 0.132903
vt 0.753093 0.132903
vt 0.646857 0.003339
vt 0.753093 0.003339
vt 0.753093 0.089715
vt 0.646857 0.089715
vt 0.379771 0.478406
vt 0.486008 0.478406
vt 0.486008 0.521594
vt 0.379771 0.521594
vt 0.241178 0.003339
vt 0.347414 0.003339
vt 0.347414 0.089715
vt 0.241178 0.089715
vt 0.070808 0.823910
vt 0.177044 0.823909
vt 0.177044 0.910285
vt 0.070808 0.910285
vt 0.070808 0.780722
vt 0.177044 0.780722
vt 0.070808 0.737534
vt 0.177044 0.737534
vt 0.070808 0.348842
vt 0.177044 0.348842
vt 0.177044 0.435218
vt 0.070808 0.435218
vt 0.644069 0.485084
vt 0.750306 0.485084
vt 0.750306 0.571459
vt 0.644069 0.571459
vt 0.750306 0.657835
vt 0.644069 0.657835
vt 0.750306 0.701023
vt 0.644069 0.701023
vt 0.374340 0.528271
vt 0.385042 0.528271
vt 0.385042 0.657835
vt 0.374340 0.657835
vt 0.775350 0.219278
vt 0.881586 0.219278
vt 0.881586 0.262466
vt 0.775350 0.262466
vt 0.518365 0.003339
vt 0.624601 0.003339
vt 0.624601 0.046527
vt 0.518365 0.046527
vt 0.938028 0.435218
vt 0.927326 0.435218
vt 0.927326 0.003339
vt 0.938028 0.003339
vt 0.347414 0.176090
vt 0.241178 0.176091
vt 0.347414 0.219278
vt 0.241178 0.219278
vt 0.241178 0.564782
vt 0.347414 0.564782
vt 0.347414 0.651158
vt 0.241178 0.651158
vt 0.347414 0.694346
vt 0.241178 0.694346
vt 0.241178 0.823910
vt 0.347414 0.823909
vt 0.347414 0.996661
vt 0.241178 0.996661
vt 0.366228 0.701023
vt 0.355526 0.701023
vt 0.355526 0.528271
vt 0.366228 0.528271
vt 0.403856 0.657835
vt 0.393154 0.657835
vt 0.393154 0.528271
vt 0.403856 0.528271
vt 0.232259 0.651158
vt 0.232259 0.564782
vt 0.956842 0.657835
vt 0.946140 0.657835
vt 0.946140 0.398708
vt 0.956842 0.398708
vt 0.241178 0.305654
vt 0.347414 0.305654
vt 0.241178 0.262466
vt 0.347414 0.262466
vt 0.504822 0.614647
vt 0.494119 0.614647
vt 0.494119 0.528271
vt 0.504822 0.528272
vt 0.199836 0.089715
vt 0.199836 0.003339
vt 0.518365 0.089715
vt 0.624601 0.089715
vt 0.624601 0.521594
vt 0.518365 0.521594
vt 0.523636 0.614647
vt 0.512933 0.614647
vt 0.512933 0.528271
vt 0.523636 0.528271
vt 0.775350 0.305654
vt 0.881586 0.305654
vt 0.881586 0.392030
vt 0.775350 0.392030
vt 0.632713 0.262466
vt 0.632713 0.176091
vt 0.775350 0.132903
vt 0.881586 0.132903
vt 0.775350 0.003339
vt 0.881586 0.003339
vt 0.763988 0.528271
vt 0.763988 0.441895
vt 0.638283 0.571459
vt 0.638283 0.485084
vt 0.876010 0.614647
vt 0.769774 0.614647
vt 0.177044 0.305654
vt 0.070808 0.305654
vt 0.472126 0.696194
vt 0.461423 0.696194
vt 0.461423 0.671699
vt 0.472126 0.671699
vt 0.561264 0.621325
vt 0.561264 0.664513
vt 0.550561 0.664513
vt 0.550561 0.621325
vt 0.542450 0.614648
vt 0.531747 0.614647
vt 0.531747 0.528272
vt 0.542450 0.528272
vt 0.177044 0.694346
vt 0.070808 0.694346
vt 0.578483 0.704145
vt 0.567780 0.704145
vt 0.567780 0.671190
vt 0.578483 0.671190
vt 0.580078 0.621325
vt 0.580078 0.664513
vt 0.569376 0.664513
vt 0.569376 0.621325
vt 0.014786 0.823910
vt 0.014786 0.780722
vt 0.177044 0.996661
vt 0.070808 0.996661
vt 0.460299 0.614647
vt 0.449596 0.614647
vt 0.449596 0.528271
vt 0.460299 0.528271
vt 0.472126 0.722831
vt 0.461423 0.722831
vt 0.461423 0.702872
vt 0.472126 0.702872
vt 0.504822 0.621325
vt 0.504822 0.664513
vt 0.494119 0.664513
vt 0.494119 0.621325
vt 0.692411 0.707700
vt 0.692411 0.716511
vt 0.685587 0.716511
vt 0.685587 0.707700
vt 0.707347 0.707700
vt 0.707347 0.716511
vt 0.700523 0.716511
vt 0.700523 0.707700
vt 0.598892 0.621325
vt 0.598892 0.664513
vt 0.588190 0.664513
vt 0.588190 0.621325
vt 0.722042 0.707700
vt 0.722042 0.716511
vt 0.715458 0.716511
vt 0.715458 0.707700
vt 0.366228 0.719344
vt 0.355526 0.719344
vt 0.355526 0.707700
vt 0.366228 0.707700
vt 0.580078 0.614647
vt 0.569376 0.614647
vt 0.569376 0.528271
vt 0.580078 0.528271
vt 0.753093 0.392030
vt 0.646857 0.392030
vt 0.644069 0.398708
vt 0.750306 0.398708
vt 0.638283 0.701023
vt 0.638283 0.657835
vt 0.750634 0.707700
vt 0.750634 0.716511
vt 0.744848 0.716511
vt 0.744848 0.707700
vt 0.598892 0.614647
vt 0.588190 0.614647
vt 0.588190 0.528271
vt 0.598892 0.528271
vt 0.385042 0.664513
vt 0.385042 0.707701
vt 0.374340 0.707700
vt 0.374340 0.664513
vt 0.876010 0.701023
vt 0.769774 0.701023
vt 0.758417 0.528271
vt 0.758417 0.441895
vt 0.763988 0.614647
vt 0.763988 0.398708
vt 0.561264 0.614647
vt 0.550561 0.614647
vt 0.550561 0.528271
vt 0.561264 0.528271
vt 0.764532 0.707700
vt 0.764532 0.716511
vt 0.758746 0.716511
vt 0.758746 0.707700
vt 0.632713 0.657835
vt 0.632713 0.571459
vt 0.778214 0.707700
vt 0.778214 0.716511
vt 0.772644 0.716511
vt 0.772644 0.707700
vt 0.791896 0.707700
vt 0.791896 0.716511
vt 0.786326 0.716511
vt 0.786326 0.707700
vt 0.761205 0.219278
vt 0.761205 0.132903
vt 0.643415 0.719344
vt 0.632713 0.719344
vt 0.632713 0.707700
vt 0.643415 0.707700
vt 0.523636 0.621325
vt 0.523636 0.664513
vt 0.512933 0.664513
vt 0.512933 0.621325
vt 0.768766 0.262466
vt 0.768766 0.219278
vt 0.736737 0.707700
vt 0.736737 0.716511
vt 0.730153 0.716511
vt 0.730153 0.707700
vt 0.640274 0.176091
vt 0.640274 0.132903
vt 0.640033 0.089715
vt 0.640033 0.003339
vt 0.768525 0.392030
vt 0.768525 0.305654
vt 0.379771 0.003339
vt 0.486008 0.003339
vt 0.486008 0.435218
vt 0.379771 0.435218
vt 0.422671 0.622402
vt 0.422671 0.665590
vt 0.411968 0.665590
vt 0.411968 0.622402
vt 0.494119 0.089715
vt 0.494119 0.046527
vt 0.355526 0.478406
vt 0.355526 0.435218
vt 0.422671 0.723399
vt 0.411968 0.723399
vt 0.411968 0.703440
vt 0.422671 0.703440
vt 0.849685 0.716159
vt 0.846951 0.716159
vt 0.846951 0.707700
vt 0.849685 0.707700
vt 0.621383 0.726278
vt 0.618649 0.726278
vt 0.618649 0.683726
vt 0.621383 0.683726
vt 0.860531 0.716159
vt 0.857797 0.716159
vt 0.857797 0.707700
vt 0.860531 0.707700
vt 0.911246 0.570823
vt 0.908512 0.570823
vt 0.908512 0.528271
vt 0.911246 0.528271
vt 0.441485 0.622402
vt 0.441485 0.664954
vt 0.431210 0.664954
vt 0.431210 0.622402
vt 0.403429 0.664513
vt 0.403429 0.707065
vt 0.393154 0.707065
vt 0.393154 0.664513
vt 0.803723 0.716945
vt 0.800008 0.716945
vt 0.800008 0.707700
vt 0.803723 0.707700
vt 0.434925 0.715329
vt 0.431210 0.715329
vt 0.431210 0.671632
vt 0.434925 0.671632
vt 0.815550 0.716945
vt 0.811834 0.716945
vt 0.811834 0.707700
vt 0.815550 0.707700
vt 0.453311 0.715397
vt 0.449596 0.715397
vt 0.449596 0.671699
vt 0.453311 0.671699
vt 0.460825 0.621325
vt 0.460825 0.665022
vt 0.449596 0.665022
vt 0.449596 0.621325
vt 0.480166 0.621325
vt 0.480166 0.665022
vt 0.468937 0.665022
vt 0.468937 0.621325
vt 0.827195 0.715854
vt 0.823661 0.715854
vt 0.823661 0.707700
vt 0.827195 0.707700
vt 0.610537 0.726707
vt 0.607004 0.726707
vt 0.607004 0.683726
vt 0.610537 0.683726
vt 0.838840 0.715854
vt 0.835306 0.715854
vt 0.835306 0.707700
vt 0.838840 0.707700
vt 0.483770 0.714680
vt 0.480237 0.714680
vt 0.480237 0.671699
vt 0.483770 0.671699
vt 0.504024 0.671190
vt 0.504024 0.714171
vt 0.494119 0.714171
vt 0.494119 0.671190
vt 0.522041 0.671190
vt 0.522041 0.714171
vt 0.512136 0.714171
vt 0.512136 0.671190
vt 0.029466 0.996661
vt 0.029466 0.910285
vt 0.540855 0.705223
vt 0.530152 0.705223
vt 0.530152 0.671190
vt 0.540855 0.671190
vt 0.559669 0.705223
vt 0.548966 0.705223
vt 0.548966 0.671190
vt 0.559669 0.671190
vt 0.617706 0.633861
vt 0.617706 0.677049
vt 0.607004 0.677049
vt 0.607004 0.633861
vt 0.617706 0.574389
vt 0.607004 0.574389
vt 0.607004 0.528271
vt 0.617706 0.528271
vt 0.185156 0.219278
vt 0.185156 0.176091
vt 0.617706 0.627183
vt 0.607004 0.627183
vt 0.607004 0.581066
vt 0.617706 0.581066
vt 0.542450 0.621325
vt 0.542450 0.664513
vt 0.531747 0.664513
vt 0.531747 0.621325
vt 0.201146 0.305654
vt 0.201146 0.262466
vt 0.597297 0.704145
vt 0.586594 0.704145
vt 0.586594 0.671190
vt 0.597297 0.671190
vt 0.030776 0.737534
vt 0.030776 0.694346
vt 0.061889 0.435218
vt 0.061889 0.348842
vt 0.660445 0.707700
vt 0.660445 0.716511
vt 0.651527 0.716511
vt 0.651527 0.707700
vt 0.677476 0.707700
vt 0.677476 0.716511
vt 0.668557 0.716511
vt 0.668557 0.707700
vt 0.211422 0.823910
vt 0.211422 0.694346
vt 0.422671 0.696762
vt 0.411968 0.696762
vt 0.411968 0.672267
vt 0.422671 0.672267
vt 0.041052 0.305654
vt 0.041052 0.176091
vt 0.889697 0.823909
vt 0.900400 0.823910
vt 0.900400 0.996661
vt 0.889697 0.996661
vt 0.938028 0.441896
vt 0.938028 0.528271
vt 0.927326 0.528271
vt 0.927326 0.441896
vt 0.938028 0.614647
vt 0.927326 0.614647
vt 0.938028 0.701023
vt 0.927326 0.701023
vt 0.956842 0.219278
vt 0.946140 0.219278
vt 0.946140 0.132903
vt 0.956842 0.132903
vt 0.956842 0.392030
vt 0.946140 0.392030
vt 0.946140 0.305654
vt 0.956842 0.305654
vt 0.919214 0.089715
vt 0.919214 0.521594
vt 0.908511 0.521594
vt 0.908512 0.089715
vt 0.900400 0.089715
vt 0.889697 0.089715
vt 0.889697 0.003339
vt 0.900400 0.003339
vt 0.900400 0.176091
vt 0.889697 0.176090
vt 0.889697 0.305654
vt 0.900400 0.305654
vt 0.900400 0.564782
vt 0.889697 0.564782
vt 0.900400 0.651158
vt 0.889697 0.651158
vt 0.889697 0.694346
vt 0.900400 0.694346
vt 0.938028 0.744211
vt 0.927326 0.744211
vt 0.956842 0.262466
vt 0.946140 0.262466
vt 0.919214 0.003339
vt 0.919214 0.046527
vt 0.908512 0.046527
vt 0.908512 0.003339
vt 0.900400 0.219278
vt 0.889697 0.219278
vt 0.900400 0.262466
vt 0.889697 0.262466
vt 0.946140 0.003339
vt 0.956842 0.003339
vt 0.441485 0.528271
vt 0.441485 0.615725
vt 0.430782 0.615725
vt 0.430782 0.528271
s 0
usemtl Material
f 26/1/1 3/2/1 4/3/1 25/4/1
f 2/5/2 121/6/2 122/7/2 1/8/2
f 1/9/3 122/10/3 123/11/3 46/12/3
f 28/13/3 141/14/3 142/15/3 27/16/3
f 29/17/3 140/18/3 141/14/3 28/13/3
f 31/19/3 138/20/3 139/21/3 30/22/3
f 32/23/3 137/24/3 138/20/3 31/19/3
f 34/25/3 135/26/3 136/27/3 33/28/3
f 35/29/3 134/30/3 135/31/3 34/32/3
f 14/33/4 155/34/4 156/35/4 13/36/4
f 39/37/3 130/38/3 131/39/3 38/40/3
f 40/41/3 129/42/3 130/38/3 39/37/3
f 41/43/3 128/44/3 129/42/3 40/41/3
f 44/45/3 125/46/3 126/47/3 43/48/3
f 25/49/4 144/50/4 145/51/4 24/52/4
f 24/52/4 145/51/4 146/53/4 23/54/4
f 23/54/4 146/53/4 147/55/4 22/56/4
f 21/57/1 30/58/1 29/59/1 22/60/1
f 20/61/4 149/62/4 150/63/4 19/64/4
f 17/65/4 152/66/4 153/67/4 16/68/4
f 36/69/1 15/70/1 14/71/1 37/72/1
f 13/36/4 156/35/4 157/73/4 12/74/4
f 12/74/4 157/73/4 158/75/4 11/76/4
f 8/77/4 161/78/4 162/79/4 7/80/4
f 7/80/4 162/79/4 163/81/4 6/82/4
f 5/83/4 164/84/4 121/85/4 2/86/4
f 46/87/1 5/88/1 2/89/1 1/90/1
f 117/91/1 116/92/1 115/93/1 118/94/1
f 6/82/4 163/81/4 164/84/4 5/83/4
f 7/80/4 111/95/4 112/96/4 8/77/4
f 42/97/1 9/98/1 8/99/1 43/100/1
f 9/101/4 160/102/4 161/78/4 8/77/4
f 10/103/4 159/104/4 160/102/4 9/101/4
f 11/76/4 158/75/4 159/104/4 10/103/4
f 38/105/1 13/106/1 12/107/1 39/108/1
f 13/36/4 99/109/4 100/110/4 14/33/4
f 15/111/4 154/112/4 155/113/4 14/114/4
f 16/68/4 153/67/4 154/112/4 15/111/4
f 69/115/1 68/116/1 67/117/1 70/118/1
f 18/119/4 151/120/4 152/121/4 17/122/4
f 19/64/4 150/63/4 151/120/4 18/119/4
f 30/22/3 61/123/3 62/124/3 31/19/3
f 21/125/4 148/126/4 149/62/4 20/61/4
f 22/127/4 147/128/4 148/126/4 21/125/4
f 27/16/3 52/129/3 53/130/3 28/13/3
f 25/49/4 24/52/4 49/131/4 50/132/4
f 27/16/3 142/15/3 143/133/3 26/134/3
f 46/12/3 123/11/3 124/135/3 45/136/3
f 45/137/5 6/138/5 116/139/5 117/140/5
f 45/141/1 44/142/1 7/143/1 6/144/1
f 113/145/1 112/146/1 111/147/1 114/148/1
f 43/48/3 126/47/3 127/149/3 42/150/3
f 42/150/3 127/149/3 128/44/3 41/43/3
f 9/151/2 42/152/2 110/153/2 107/154/2
f 41/155/1 40/156/1 11/157/1 10/158/1
f 40/41/3 39/37/3 105/159/3 106/160/3
f 38/40/3 131/39/3 132/161/3 37/162/3
f 101/163/1 100/164/1 99/165/1 102/166/1
f 15/167/2 36/168/2 74/169/2 71/170/2
f 35/171/1 34/172/1 17/173/1 16/174/1
f 17/175/2 34/176/2 70/177/2 67/178/2
f 33/179/5 18/180/5 68/181/5 69/182/5
f 33/183/1 32/184/1 19/185/1 18/186/1
f 19/187/2 32/188/2 66/189/2 63/190/2
f 30/191/5 21/192/5 60/193/5 61/194/5
f 61/195/1 60/196/1 59/197/1 62/198/1
f 30/22/3 139/21/3 140/199/3 29/200/3
f 4/201/4 120/202/4 144/50/4 25/49/4
f 23/54/4 22/56/4 47/203/4 48/204/4
f 24/52/4 23/54/4 48/204/4 49/131/4
f 22/205/2 29/206/2 54/207/2 47/208/2
f 51/209/1 50/210/1 49/211/1 52/212/1
f 54/213/1 53/214/1 48/215/1 47/216/1
f 26/134/3 143/133/3 119/217/3 3/218/3
f 52/129/3 57/219/3 58/220/3 53/130/3
f 27/16/3 26/134/3 51/221/3 52/129/3
f 29/17/3 28/13/3 53/130/3 54/222/3
f 57/223/1 56/224/1 55/225/1 58/226/1
f 26/227/5 25/228/5 50/229/5 51/230/5
f 49/131/4 48/204/4 55/231/4 56/232/4
f 52/233/5 49/234/5 56/235/5 57/236/5
f 48/237/2 53/238/2 58/239/2 55/240/2
f 21/125/4 20/61/4 59/241/4 60/242/4
f 20/243/2 31/244/2 62/245/2 59/246/2
f 66/247/1 65/248/1 64/249/1 63/250/1
f 20/61/4 19/64/4 63/251/4 64/252/4
f 31/253/5 20/254/5 64/255/5 65/256/5
f 32/23/3 31/19/3 65/257/3 66/258/3
f 34/25/3 33/28/3 69/259/3 70/260/3
f 18/119/4 17/122/4 67/261/4 68/262/4
f 37/263/3 132/264/3 133/265/3 36/266/3
f 74/267/1 73/268/1 72/269/1 71/270/1
f 16/68/4 15/111/4 71/271/4 72/272/4
f 36/266/3 35/29/3 73/273/3 74/274/3
f 35/275/5 16/276/5 72/277/5 73/278/5
f 75/279/5 76/280/5 78/281/5 77/282/5
f 77/283/3 78/284/3 82/285/3 81/286/3
f 81/287/2 82/288/2 80/289/2 79/290/2
f 79/291/4 80/292/4 76/293/4 75/294/4
f 77/295/6 81/296/6 79/297/6 75/298/6
f 82/299/1 78/300/1 76/301/1 80/302/1
f 83/303/5 84/304/5 86/305/5 85/306/5
f 85/307/3 86/308/3 90/309/3 89/310/3
f 89/311/2 90/312/2 88/313/2 87/314/2
f 87/315/4 88/316/4 84/317/4 83/318/4
f 85/319/6 89/320/6 87/321/6 83/322/6
f 90/323/1 86/324/1 84/325/1 88/326/1
f 91/327/5 92/328/5 94/329/5 93/330/5
f 93/331/3 94/332/3 98/333/3 97/334/3
f 97/335/2 98/336/2 96/337/2 95/338/2
f 95/339/4 96/340/4 92/341/4 91/342/4
f 93/343/6 97/344/6 95/345/6 91/346/6
f 98/347/1 94/348/1 92/349/1 96/350/1
f 38/40/3 37/162/3 101/351/3 102/352/3
f 37/353/5 14/354/5 100/355/5 101/356/5
f 13/357/2 38/358/2 102/359/2 99/360/2
f 106/361/1 105/362/1 104/363/1 103/364/1
f 11/365/2 40/366/2 106/367/2 103/368/2
f 12/74/4 11/76/4 103/369/4 104/370/4
f 39/371/5 12/372/5 104/373/5 105/374/5
f 110/375/1 109/376/1 108/377/1 107/378/1
f 10/103/4 9/101/4 107/379/4 108/380/4
f 41/381/5 10/382/5 108/383/5 109/384/5
f 42/150/3 41/43/3 109/385/3 110/386/3
f 44/45/3 43/48/3 113/387/3 114/388/3
f 43/389/5 8/390/5 112/391/5 113/392/5
f 7/393/2 44/394/2 114/395/2 111/396/2
f 6/82/4 5/83/4 115/397/4 116/398/4
f 45/136/3 124/135/3 125/46/3 44/45/3
f 5/399/2 46/400/2 118/401/2 115/402/2
f 45/136/3 117/403/3 118/404/3 46/12/3
f 36/266/3 133/265/3 134/30/3 35/29/3
f 33/28/3 136/27/3 137/24/3 32/23/3
f 164/405/6 123/406/6 122/407/6 121/408/6
f 119/409/6 143/410/6 144/411/6 120/412/6
f 142/413/6 145/414/6 144/411/6 143/410/6
f 141/415/6 146/416/6 145/414/6 142/413/6
f 138/417/6 149/418/6 148/419/6 139/420/6
f 135/421/6 152/422/6 151/423/6 136/424/6
f 133/425/6 132/426/6 155/427/6 154/428/6
f 131/429/6 156/430/6 155/431/6 132/432/6
f 130/433/6 157/434/6 156/430/6 131/429/6
f 160/435/6 127/436/6 126/437/6 161/438/6
f 125/439/6 162/440/6 161/438/6 126/437/6
f 163/441/6 124/442/6 123/406/6 164/405/6
f 141/415/6 140/443/6 147/444/6 146/416/6
f 138/417/6 137/445/6 150/446/6 149/418/6
f 137/445/6 136/424/6 151/423/6 150/446/6
f 135/447/6 134/448/6 153/449/6 152/450/6
f 134/448/6 133/425/6 154/428/6 153/449/6
f 130/433/6 129/451/6 158/452/6 157/434/6
f 129/451/6 128/453/6 159/454/6 158/452/6
f 128/453/6 127/436/6 160/435/6 159/454/6
f 125/439/6 124/442/6 163/441/6 162/440/6
f 139/420/6 148/419/6 147/455/6 140/456/6
f 3/457/5 119/458/5 120/459/5 4/460/5
